# xmcd
#
# Track frame offsets: 
#        150
#        16307
#        33542
#        47542
#        64702
#        79932
#        94692
#        111460
#        129270
#        143127
#        159030
#        173027
#
# Disc length: 2521 seconds
#
# Revision: 0
# Processed by: cddbd v1.5.1PL2 Copyright (c) Steve Scherf et al.
# Submitted via: ExactAudioCopy v0.95b4
#
DISCID=9109d70c
DTITLE=มนต์สิทธิ์ คำสร้อย - ดอกไม้ให้คุณ
DYEAR=2001
DGENRE=Country
TTITLE0=ดอกไม้ให้คุณ
TTITLE1=จูบมัดจำ
TTITLE2=ลำเต้ย
TTITLE3=คืนอำลา
TTITLE4=ไพรอำพราง
TTITLE5=รักคนชื่อน้อย
TTITLE6=กระท่อมพ่อม่าย
TTITLE7=อดีตรักโรงหอ
TTITLE8=แหวนรัก
TTITLE9=จ.ส. รอรัก
TTITLE10=ลำเต้ย (คาราโอเกะ)
TTITLE11=ดอกไม้ให้คุณ  (คาราโอเกะ)
EXTD=
EXTT0=
EXTT1=
EXTT2=
EXTT3=
EXTT4=
EXTT5=
EXTT6=
EXTT7=
EXTT8=
EXTT9=
EXTT10=
EXTT11=
PLAYORDER=
